<svg width="14" height="16" viewBox="0 0 14 16" fill="none" xmlns="http://www.w3.org/2000/svg">
<path d="M13.609 10.9797L12.166 10.1499L12.8081 9.97677C12.9024 9.9548 12.9914 9.91407 13.0696 9.85701C13.1478 9.79995 13.2138 9.72773 13.2635 9.64464C13.3132 9.56155 13.3457 9.46931 13.3591 9.3734C13.3724 9.27749 13.3663 9.17988 13.3411 9.08638C13.3159 8.99288 13.2721 8.90541 13.2124 8.82918C13.1527 8.75295 13.0783 8.68952 12.9935 8.64266C12.9088 8.59581 12.8155 8.56649 12.7192 8.55646C12.6229 8.54642 12.5255 8.55588 12.4329 8.58426L10.3983 9.13261L8.443 7.99984L10.3983 6.86707L12.4329 7.41541H12.6205C12.8119 7.44029 13.0053 7.38813 13.1582 7.27041C13.3111 7.15269 13.411 6.97906 13.4358 6.7877C13.4607 6.59634 13.4086 6.40294 13.2908 6.25004C13.1731 6.09714 12.9995 5.99727 12.8081 5.97239L12.166 5.83531L13.609 5.00557C13.6914 4.9582 13.7637 4.89505 13.8218 4.81974C13.8798 4.74442 13.9224 4.65842 13.9472 4.56663C13.972 4.47484 13.9785 4.37907 13.9662 4.28478C13.954 4.19049 13.9233 4.09954 13.876 4.0171C13.8286 3.93467 13.7654 3.86238 13.6901 3.80435C13.6148 3.74632 13.5288 3.7037 13.437 3.67891C13.3452 3.65412 13.2495 3.64765 13.1552 3.65987C13.0609 3.6721 12.9699 3.70277 12.8875 3.75015L11.329 4.65925L11.5455 3.85837C11.5739 3.76579 11.5833 3.66845 11.5733 3.57214C11.5633 3.47583 11.5339 3.38252 11.4871 3.29778C11.4402 3.21304 11.3768 3.1386 11.3006 3.07889C11.2243 3.01918 11.1369 2.97542 11.0434 2.95023C10.9499 2.92504 10.8523 2.91893 10.7563 2.93226C10.6604 2.94559 10.5682 2.97809 10.4851 3.02782C10.402 3.07755 10.3298 3.1435 10.2727 3.22173C10.2157 3.29996 10.1749 3.38888 10.153 3.48319L9.56134 5.64772L7.72149 6.75163V4.4933L9.21501 2.99978C9.34939 2.86459 9.42482 2.68172 9.42482 2.49111C9.42482 2.3005 9.34939 2.11763 9.21501 1.98245C9.14794 1.91482 9.06814 1.86115 8.98021 1.82452C8.89229 1.78789 8.79799 1.76903 8.70274 1.76903C8.60749 1.76903 8.51319 1.78789 8.42526 1.82452C8.33734 1.86115 8.25754 1.91482 8.19047 1.98245L7.72149 2.45143V0.784742C7.72149 0.593386 7.64547 0.409867 7.51016 0.274558C7.37485 0.139248 7.19133 0.0632324 6.99998 0.0632324C6.80862 0.0632324 6.6251 0.139248 6.48979 0.274558C6.35448 0.409867 6.27847 0.593386 6.27847 0.784742V2.56687L5.69404 1.98245C5.62697 1.91482 5.54717 1.86115 5.45925 1.82452C5.37133 1.78789 5.27702 1.76903 5.18177 1.76903C5.08652 1.76903 4.99222 1.78789 4.9043 1.82452C4.81637 1.86115 4.73658 1.91482 4.6695 1.98245C4.53512 2.11763 4.45969 2.3005 4.45969 2.49111C4.45969 2.68172 4.53512 2.86459 4.6695 2.99978L6.27847 4.60874V6.77327L4.42419 5.67658L3.83255 3.51205C3.81058 3.41774 3.76985 3.32882 3.71279 3.25059C3.65573 3.17236 3.5835 3.10641 3.50042 3.05668C3.41733 3.00695 3.32509 2.97445 3.22918 2.96112C3.13327 2.94779 3.03565 2.9539 2.94216 2.97909C2.84866 3.00428 2.76119 3.04804 2.68496 3.10775C2.60873 3.16746 2.54529 3.2419 2.49844 3.32664C2.45158 3.41138 2.42227 3.50469 2.41223 3.601C2.4022 3.69731 2.41166 3.79465 2.44004 3.88723L2.67092 4.65925L1.11246 3.76458C1.03003 3.7172 0.93907 3.68653 0.844783 3.6743C0.750495 3.66208 0.654724 3.66855 0.562936 3.69334C0.471149 3.71813 0.385142 3.76075 0.309828 3.81878C0.234513 3.87681 0.171366 3.9491 0.123991 4.03153C0.0766161 4.11397 0.0459414 4.20492 0.0337181 4.29921C0.0214949 4.3935 0.0279625 4.48927 0.0527519 4.58106C0.102816 4.76643 0.22447 4.92432 0.39095 5.02L1.83397 5.83531L1.2279 6.0229C1.03654 6.04778 0.862908 6.14765 0.745189 6.30055C0.62747 6.45345 0.575311 6.64685 0.600187 6.83821C0.625064 7.02956 0.724937 7.2032 0.877837 7.32092C1.03074 7.43864 1.22414 7.4908 1.41549 7.46592H1.60309L3.63774 6.91757L5.55696 7.99984L3.60167 9.13261L1.56701 8.58426C1.47154 8.54881 1.36965 8.53397 1.26804 8.54072C1.16642 8.54747 1.06739 8.57565 0.977445 8.62342C0.887503 8.67118 0.808692 8.73745 0.746194 8.81785C0.683696 8.89826 0.638927 8.99098 0.614831 9.08993C0.590735 9.18888 0.587859 9.2918 0.60639 9.39194C0.624922 9.49208 0.664443 9.58716 0.722352 9.67093C0.780262 9.7547 0.85525 9.82526 0.942383 9.87797C1.02952 9.93069 1.12682 9.96436 1.2279 9.97677L1.87004 10.1499L0.427025 10.9797C0.260545 11.0753 0.138892 11.2332 0.0888274 11.4186C0.038763 11.604 0.0643884 11.8017 0.160067 11.9681C0.255745 12.1346 0.413638 12.2563 0.599012 12.3063C0.784385 12.3564 0.982055 12.3308 1.14853 12.2351L2.67092 11.3404L2.45447 12.1413C2.42587 12.2337 2.41612 12.3308 2.4258 12.427C2.43549 12.5232 2.46441 12.6165 2.51085 12.7013C2.55729 12.7861 2.6203 12.8607 2.69613 12.9207C2.77197 12.9806 2.85909 13.0248 2.95231 13.0504C3.01464 13.0575 3.07757 13.0575 3.1399 13.0504C3.30279 13.056 3.46277 13.0062 3.59379 12.9093C3.7248 12.8123 3.81913 12.6739 3.86141 12.5165L4.45305 10.352L6.27847 9.24805V11.5064L4.78494 12.9999C4.65056 13.1351 4.57513 13.318 4.57513 13.5086C4.57513 13.6992 4.65056 13.882 4.78494 14.0172C4.85177 14.0854 4.93145 14.1396 5.01939 14.1768C5.10732 14.2139 5.20175 14.2333 5.29721 14.2337C5.39268 14.2333 5.48711 14.2139 5.57504 14.1768C5.66298 14.1396 5.74266 14.0854 5.80949 14.0172L6.27847 13.5482V15.2149C6.27847 15.4063 6.35448 15.5898 6.48979 15.7251C6.6251 15.8604 6.80862 15.9364 6.99998 15.9364C7.19133 15.9364 7.37485 15.8604 7.51016 15.7251C7.64547 15.5898 7.72149 15.4063 7.72149 15.2149V13.4328L8.30591 14.0172C8.37298 14.0849 8.45278 14.1385 8.5407 14.1752C8.62863 14.2118 8.72293 14.2306 8.81818 14.2306C8.91343 14.2306 9.00773 14.2118 9.09566 14.1752C9.18358 14.1385 9.26338 14.0849 9.33045 14.0172C9.46483 13.882 9.54026 13.6992 9.54026 13.5086C9.54026 13.318 9.46483 13.1351 9.33045 12.9999L7.72149 11.3909V9.2264L9.57577 10.3015L10.1674 12.466C10.2097 12.6234 10.304 12.7618 10.435 12.8588C10.566 12.9557 10.726 13.0055 10.8889 12.9999C10.9512 13.007 11.0142 13.007 11.0765 12.9999C11.1686 12.9756 11.255 12.9333 11.3307 12.8755C11.4064 12.8177 11.4699 12.7454 11.5175 12.6629C11.5652 12.5804 11.596 12.4893 11.6082 12.3948C11.6204 12.3003 11.6138 12.2044 11.5888 12.1124L11.329 11.3404L12.8731 12.2351C12.9555 12.2825 13.0465 12.3131 13.1407 12.3254C13.235 12.3376 13.3308 12.3311 13.4226 12.3063C13.5144 12.2815 13.6004 12.2389 13.6757 12.1809C13.751 12.1229 13.8142 12.0506 13.8615 11.9681C13.9089 11.8857 13.9396 11.7948 13.9518 11.7005C13.964 11.6062 13.9576 11.5104 13.9328 11.4186C13.908 11.3268 13.8654 11.2408 13.8073 11.1655C13.7493 11.0902 13.677 11.027 13.5946 10.9797H13.609Z" fill="white"/>
</svg>
