<svg width="12" height="13" viewBox="0 0 12 13" fill="none" xmlns="http://www.w3.org/2000/svg">
<path d="M5.99996 10.5833C6.11533 10.5833 6.22811 10.549 6.32404 10.4849C6.41997 10.4208 6.49474 10.3297 6.53889 10.2232C6.58304 10.1166 6.59459 9.99927 6.57208 9.88612C6.54958 9.77296 6.49402 9.66902 6.41244 9.58744C6.33086 9.50586 6.22692 9.4503 6.11376 9.42779C6.00061 9.40529 5.88332 9.41684 5.77673 9.46099C5.67014 9.50514 5.57903 9.57991 5.51494 9.67584C5.45084 9.77176 5.41663 9.88455 5.41663 9.99992C5.41663 10.1546 5.47808 10.303 5.58748 10.4124C5.69688 10.5218 5.84525 10.5833 5.99996 10.5833ZM8.91663 10.5833C9.032 10.5833 9.14478 10.549 9.24071 10.4849C9.33664 10.4208 9.41141 10.3297 9.45556 10.2232C9.49971 10.1166 9.51126 9.99927 9.48875 9.88612C9.46624 9.77296 9.41069 9.66902 9.32911 9.58744C9.24753 9.50586 9.14359 9.4503 9.03043 9.42779C8.91727 9.40529 8.79998 9.41684 8.69339 9.46099C8.5868 9.50514 8.4957 9.57991 8.4316 9.67584C8.3675 9.77176 8.33329 9.88455 8.33329 9.99992C8.33329 10.1546 8.39475 10.303 8.50415 10.4124C8.61354 10.5218 8.76192 10.5833 8.91663 10.5833ZM8.91663 8.24992C9.032 8.24992 9.14478 8.21571 9.24071 8.15161C9.33664 8.08751 9.41141 7.99641 9.45556 7.88982C9.49971 7.78323 9.51126 7.66594 9.48875 7.55278C9.46624 7.43963 9.41069 7.33569 9.32911 7.25411C9.24753 7.17253 9.14359 7.11697 9.03043 7.09446C8.91727 7.07195 8.79998 7.0835 8.69339 7.12766C8.5868 7.17181 8.4957 7.24657 8.4316 7.3425C8.3675 7.43843 8.33329 7.55121 8.33329 7.66658C8.33329 7.82129 8.39475 7.96967 8.50415 8.07906C8.61354 8.18846 8.76192 8.24992 8.91663 8.24992ZM5.99996 8.24992C6.11533 8.24992 6.22811 8.21571 6.32404 8.15161C6.41997 8.08751 6.49474 7.99641 6.53889 7.88982C6.58304 7.78323 6.59459 7.66594 6.57208 7.55278C6.54958 7.43963 6.49402 7.33569 6.41244 7.25411C6.33086 7.17253 6.22692 7.11697 6.11376 7.09446C6.00061 7.07195 5.88332 7.0835 5.77673 7.12766C5.67014 7.17181 5.57903 7.24657 5.51494 7.3425C5.45084 7.43843 5.41663 7.55121 5.41663 7.66658C5.41663 7.82129 5.47808 7.96967 5.58748 8.07906C5.69688 8.18846 5.84525 8.24992 5.99996 8.24992ZM10.0833 1.24992H9.49996V0.666585C9.49996 0.511876 9.4385 0.363503 9.32911 0.254106C9.21971 0.14471 9.07134 0.083252 8.91663 0.083252C8.76192 0.083252 8.61354 0.14471 8.50415 0.254106C8.39475 0.363503 8.33329 0.511876 8.33329 0.666585V1.24992H3.66663V0.666585C3.66663 0.511876 3.60517 0.363503 3.49577 0.254106C3.38638 0.14471 3.238 0.083252 3.08329 0.083252C2.92858 0.083252 2.78021 0.14471 2.67081 0.254106C2.56142 0.363503 2.49996 0.511876 2.49996 0.666585V1.24992H1.91663C1.4525 1.24992 1.00738 1.43429 0.679189 1.76248C0.351001 2.09067 0.166626 2.53579 0.166626 2.99992V11.1666C0.166626 11.6307 0.351001 12.0758 0.679189 12.404C1.00738 12.7322 1.4525 12.9166 1.91663 12.9166H10.0833C10.5474 12.9166 10.9925 12.7322 11.3207 12.404C11.6489 12.0758 11.8333 11.6307 11.8333 11.1666V2.99992C11.8333 2.53579 11.6489 2.09067 11.3207 1.76248C10.9925 1.43429 10.5474 1.24992 10.0833 1.24992ZM10.6666 11.1666C10.6666 11.3213 10.6052 11.4697 10.4958 11.5791C10.3864 11.6885 10.238 11.7499 10.0833 11.7499H1.91663C1.76192 11.7499 1.61354 11.6885 1.50415 11.5791C1.39475 11.4697 1.33329 11.3213 1.33329 11.1666V5.91658H10.6666V11.1666ZM10.6666 4.74992H1.33329V2.99992C1.33329 2.84521 1.39475 2.69684 1.50415 2.58744C1.61354 2.47804 1.76192 2.41659 1.91663 2.41659H2.49996V2.99992C2.49996 3.15463 2.56142 3.303 2.67081 3.4124C2.78021 3.52179 2.92858 3.58325 3.08329 3.58325C3.238 3.58325 3.38638 3.52179 3.49577 3.4124C3.60517 3.303 3.66663 3.15463 3.66663 2.99992V2.41659H8.33329V2.99992C8.33329 3.15463 8.39475 3.303 8.50415 3.4124C8.61354 3.52179 8.76192 3.58325 8.91663 3.58325C9.07134 3.58325 9.21971 3.52179 9.32911 3.4124C9.4385 3.303 9.49996 3.15463 9.49996 2.99992V2.41659H10.0833C10.238 2.41659 10.3864 2.47804 10.4958 2.58744C10.6052 2.69684 10.6666 2.84521 10.6666 2.99992V4.74992ZM3.08329 8.24992C3.19867 8.24992 3.31145 8.21571 3.40738 8.15161C3.5033 8.08751 3.57807 7.99641 3.62222 7.88982C3.66637 7.78323 3.67793 7.66594 3.65542 7.55278C3.63291 7.43963 3.57735 7.33569 3.49577 7.25411C3.41419 7.17253 3.31025 7.11697 3.1971 7.09446C3.08394 7.07195 2.96665 7.0835 2.86006 7.12766C2.75347 7.17181 2.66237 7.24657 2.59827 7.3425C2.53417 7.43843 2.49996 7.55121 2.49996 7.66658C2.49996 7.82129 2.56142 7.96967 2.67081 8.07906C2.78021 8.18846 2.92858 8.24992 3.08329 8.24992ZM3.08329 10.5833C3.19867 10.5833 3.31145 10.549 3.40738 10.4849C3.5033 10.4208 3.57807 10.3297 3.62222 10.2232C3.66637 10.1166 3.67793 9.99927 3.65542 9.88612C3.63291 9.77296 3.57735 9.66902 3.49577 9.58744C3.41419 9.50586 3.31025 9.4503 3.1971 9.42779C3.08394 9.40529 2.96665 9.41684 2.86006 9.46099C2.75347 9.50514 2.66237 9.57991 2.59827 9.67584C2.53417 9.77176 2.49996 9.88455 2.49996 9.99992C2.49996 10.1546 2.56142 10.303 2.67081 10.4124C2.78021 10.5218 2.92858 10.5833 3.08329 10.5833Z" fill="#95A1B1"/>
</svg>
